<?xml version="1.0" encoding="utf-8"?>
<!-- Generator: Adobe Illustrator 19.1.0, SVG Export Plug-In . SVG Version: 6.00 Build 0)  -->
<svg version="1.1" id="Layer_1" xmlns="http://www.w3.org/2000/svg" xmlns:xlink="http://www.w3.org/1999/xlink" x="0px" y="0px"
	 viewBox="0 0 100 100" style="enable-background:new 0 0 100 100;" xml:space="preserve">
<g>
	<path d="M47.3,56.3h-9.6L22.5,29.8l-0.2,0.1v26.4h-9.7V14.8h9.7l15.2,26.5l0.2-0.1V14.8h9.6V56.3z"/>
	<path d="M68.9,32.9H69l8.3-18.1h10.5L73.7,41.7v14.6h-9.6V41.2L50.2,14.8h10.4L68.9,32.9z"/>
	<path d="M29.7,84.9h-17v-3.7l7.8-8.2c1-1.1,1.7-2.2,2.2-3c0.5-0.9,0.7-1.7,0.7-2.3c0-0.9-0.2-1.7-0.7-2.2c-0.5-0.6-1.2-0.8-2.1-0.8
		c-0.8,0-1.5,0.4-2,1.1c-0.5,0.7-0.7,1.6-0.7,2.8h-5.5l0-0.1c-0.1-2.3,0.7-4.2,2.2-5.7c1.5-1.6,3.6-2.3,6.1-2.3c2.7,0,4.8,0.7,6.3,2
		c1.5,1.3,2.2,3.1,2.2,5.4c0,1.5-0.4,2.9-1.2,4.1c-0.8,1.2-2.3,2.9-4.4,5.3l-3.3,3.5l0.1,0.1h9.5V84.9z"/>
	<path d="M48.6,75.3c0,3.3-0.8,5.8-2.3,7.5c-1.5,1.7-3.6,2.5-6.2,2.5c-2.6,0-4.7-0.8-6.2-2.5c-1.5-1.7-2.3-4.2-2.3-7.5v-5.1
		c0-3.3,0.8-5.8,2.3-7.5c1.5-1.7,3.6-2.5,6.2-2.5c2.6,0,4.7,0.8,6.2,2.5c1.5,1.7,2.3,4.2,2.3,7.4V75.3z M42.9,69.8
		c0-1.9-0.2-3.2-0.7-4c-0.5-0.8-1.2-1.2-2.1-1.2c-0.9,0-1.6,0.4-2.1,1.2c-0.5,0.8-0.7,2.2-0.7,4v5.9c0,1.9,0.2,3.2,0.7,4.1
		c0.5,0.8,1.2,1.2,2.1,1.2c0.9,0,1.6-0.4,2.1-1.2c0.5-0.8,0.7-2.2,0.7-4.1V69.8z"/>
	<path d="M63.2,84.9h-5.6V66.2h-5.4v-4l11.1-1.7V84.9z"/>
	<path d="M77.6,60.2c1,0,1.8,0.1,2.6,0.2c0.7,0.2,1.6,0.4,2.5,0.8l-0.9,4.1c-0.8-0.2-1.5-0.4-2-0.5c-0.6-0.1-1.3-0.2-2-0.2
		c-1.3,0-2.4,0.5-3.2,1.4c-0.8,0.9-1.2,2.3-1.2,4.1l0.1,0.1c0.5-0.6,1.1-1,2-1.3c0.8-0.3,1.7-0.5,2.8-0.5c2.2,0,3.9,0.8,5.1,2.3
		c1.2,1.6,1.8,3.6,1.8,6c0,2.4-0.8,4.4-2.4,6c-1.6,1.6-3.6,2.4-6.1,2.4c-2.7,0-4.8-0.9-6.5-2.6s-2.5-4.1-2.5-7.2v-4.9
		c0-3.2,0.9-5.7,2.8-7.6C72.2,61.1,74.7,60.2,77.6,60.2z M76.5,72.8c-0.8,0-1.5,0.1-2,0.3c-0.6,0.2-1,0.5-1.3,0.9v1.4
		c0,1.8,0.3,3.1,0.9,4c0.6,0.9,1.4,1.4,2.4,1.4c0.8,0,1.5-0.4,2.1-1.2c0.5-0.8,0.8-1.7,0.8-2.8c0-1.2-0.3-2.2-0.8-2.9
		C78,73.2,77.3,72.8,76.5,72.8z"/>
</g>
<g>
	<path d="M98,2v96H2V2H98 M100,0H0v100h100V0L100,0z"/>
</g>
</svg>
